<svg xmlns="http://www.w3.org/2000/svg" width="18" height="17" viewBox="0 0 18 17">
  <g id="Settings_icon" data-name="Settings icon" transform="translate(-254 -21)">
    <g id="Group_7" data-name="Group 7" transform="translate(254 21)">
      <g id="Rectangle_96" data-name="Rectangle 96" transform="translate(0 2)" fill="#073b4c" stroke="#073b4c" stroke-width="1">
        <rect width="18" height="2" rx="1" stroke="none"/>
        <rect x="0.5" y="0.5" width="17" height="1" rx="0.5" fill="none"/>
      </g>
      <g id="Ellipse_22" data-name="Ellipse 22" transform="translate(5)" fill="#fff" stroke="#073b4c" stroke-width="1">
        <circle cx="2.5" cy="2.5" r="2.5" stroke="none"/>
        <circle cx="2.5" cy="2.5" r="2" fill="none"/>
      </g>
    </g>
    <g id="Group_7-2" data-name="Group 7" transform="translate(254 27.496)">
      <g id="Rectangle_96-2" data-name="Rectangle 96" transform="translate(0 1.504)" fill="#073b4c" stroke="#073b4c" stroke-width="1">
        <rect width="18" height="2" rx="1" stroke="none"/>
        <rect x="0.5" y="0.5" width="17" height="1" rx="0.5" fill="none"/>
      </g>
      <g id="Ellipse_22-2" data-name="Ellipse 22" transform="translate(9 -0.496)" fill="#fff" stroke="#073b4c" stroke-width="1">
        <circle cx="2.5" cy="2.5" r="2.5" stroke="none"/>
        <circle cx="2.5" cy="2.5" r="2" fill="none"/>
      </g>
    </g>
    <g id="Group_7-3" data-name="Group 7" transform="translate(254 32.992)">
      <g id="Rectangle_96-3" data-name="Rectangle 96" transform="translate(0 2.008)" fill="#073b4c" stroke="#073b4c" stroke-width="1">
        <rect width="18" height="2" rx="1" stroke="none"/>
        <rect x="0.5" y="0.5" width="17" height="1" rx="0.5" fill="none"/>
      </g>
      <g id="Ellipse_22-3" data-name="Ellipse 22" transform="translate(2 0.008)" fill="#fff" stroke="#073b4c" stroke-width="1">
        <circle cx="2.5" cy="2.5" r="2.5" stroke="none"/>
        <circle cx="2.5" cy="2.5" r="2" fill="none"/>
      </g>
    </g>
  </g>
</svg>
