<svg xmlns="http://www.w3.org/2000/svg" width="196.517" height="128.737" viewBox="0 0 196.517 128.737">
  <g id="Building_Illustration" data-name="Building Illustration" transform="translate(9.457 15.257)">
    <path id="Path_30" data-name="Path 30" d="M1395.036,256.582s-12.353-51.905,18.673-42.072,5.855-32.334,15.127-24.345,49.432-25.149,84.381,3.427c26.945,22.032,60.745,19.145,53.215,45.226,26.439,6.537,4.71,9.428,8.307,16.175,15.709,29.462-.357,61.454-24.964,51.929s-52.631,13.243-92.34-1.648-87.4,4.136-68.852-21.982S1395.036,256.582,1395.036,256.582Z" transform="translate(-1393.914 -197)" fill="#06d6a0" opacity="0.07"/>
    <path id="Path_3" data-name="Path 3" d="M167.237,501.56l-.291-.065a66.134,66.134,0,0,1,128.97-.176l-.29.066a65.454,65.454,0,0,0-64.175-51.14A66.246,66.246,0,0,0,167.237,501.56Z" transform="translate(-148.51 -401.145)" fill="#073b4c"/>
    <circle id="Ellipse_2" data-name="Ellipse 2" cx="8.088" cy="8.088" r="8.088" transform="translate(52.294 -0.549)" fill="#ef476f"/>
    <path id="Path_4" data-name="Path 4" d="M214.2,773.548a3,3,0,0,0,1.116,1.51,2.58,2.58,0,0,0-.913-3.377A3,3,0,0,0,214.2,773.548Z" transform="translate(-188.658 -674.97)" fill="#05b587"/>
    <path id="Path_5" data-name="Path 5" d="M207.233,778.7a3,3,0,0,1,.777,1.71,2.58,2.58,0,0,1-2.507-2.44A3,3,0,0,1,207.233,778.7Z" transform="translate(-181.325 -680.319)" fill="#06d6a0"/>
    <path id="Path_6" data-name="Path 6" d="M343.2,773.548a3,3,0,0,0,1.116,1.51,2.58,2.58,0,0,0-.913-3.377A3,3,0,0,0,343.2,773.548Z" transform="translate(-298.449 -674.97)" fill="#05b587"/>
    <path id="Path_7" data-name="Path 7" d="M336.233,778.7a1.008,1.008,0,1,1-.953.979,1.008,1.008,0,1,1,.953-.979Z" transform="translate(-291.116 -680.319)" fill="#06d6a0"/>
    <path id="Path_8" data-name="Path 8" d="M320.327,81.169l-3.041-2.433,17.031-15.206H377.5V76.911l-27.98,18.856Z" transform="translate(-271.772 -56.864)" fill="#073b4c"/>
    <path id="Path_9" data-name="Path 9" d="M569.79,72.059V63.833h-5.734v2.015l-2.14-2.318-13.99,15.206-5.474,3.65L533.964,144.4l12.8,12.8h29.75V79.344Z" transform="translate(-456.185 -56.864)" fill="#ccc"/>
    <rect id="Rectangle_6" data-name="Rectangle 6" width="46.228" height="78.465" transform="translate(45.514 21.871)" fill="#f2f2f2"/>
    <rect id="Rectangle_7" data-name="Rectangle 7" width="8.516" height="19.16" transform="translate(63.458 81.176)" fill="#ccc"/>
    <path id="Path_10" data-name="Path 10" d="M355.656,583.294v-3.041h-3.649v3.041h3.649Z" transform="translate(-301.323 -496.644)" fill="#3f3d56"/>
    <path id="Path_11" data-name="Path 11" d="M355.352,617.016h-3.345v3.041h3.649v-3.041Z" transform="translate(-301.323 -527.932)" fill="#3f3d56"/>
    <rect id="Rectangle_8" data-name="Rectangle 8" width="3.65" height="3.041" transform="translate(56.767 83.609)" fill="#3f3d56"/>
    <rect id="Rectangle_9" data-name="Rectangle 9" width="3.65" height="3.041" transform="translate(56.767 89.084)" fill="#3f3d56"/>
    <path id="Path_12" data-name="Path 12" d="M523.132,583.294v-3.041h-3.649v3.041h3.649Z" transform="translate(-443.86 -496.644)" fill="#3f3d56"/>
    <path id="Path_13" data-name="Path 13" d="M522.828,617.016h-3.345v3.041h3.649v-3.041Z" transform="translate(-443.86 -527.932)" fill="#3f3d56"/>
    <rect id="Rectangle_10" data-name="Rectangle 10" width="3.65" height="3.041" transform="translate(81.706 83.609)" fill="#3f3d56"/>
    <rect id="Rectangle_11" data-name="Rectangle 11" width="3.65" height="3.041" transform="translate(81.706 89.084)" fill="#3f3d56"/>
    <path id="Path_14" data-name="Path 14" d="M694.693,174.817v-3.041h-3.65v3.041h3.65Z" transform="translate(-589.873 -148.993)" fill="#3f3d56"/>
    <path id="Path_15" data-name="Path 15" d="M694.389,208.539h-3.345v3.041h3.65v-3.041Z" transform="translate(-589.873 -180.281)" fill="#3f3d56"/>
    <rect id="Rectangle_12" data-name="Rectangle 12" width="3.65" height="3.041" transform="translate(107.252 22.783)" fill="#3f3d56"/>
    <rect id="Rectangle_13" data-name="Rectangle 13" width="3.65" height="3.041" transform="translate(107.252 28.258)" fill="#3f3d56"/>
    <path id="Path_16" data-name="Path 16" d="M694.693,289.19v-3.041h-3.65v3.041h3.65Z" transform="translate(-589.873 -246.334)" fill="#3f3d56"/>
    <path id="Path_17" data-name="Path 17" d="M694.389,322.912h-3.345v3.041h3.65v-3.041Z" transform="translate(-589.873 -277.623)" fill="#3f3d56"/>
    <rect id="Rectangle_14" data-name="Rectangle 14" width="3.65" height="3.041" transform="translate(107.252 39.815)" fill="#3f3d56"/>
    <rect id="Rectangle_15" data-name="Rectangle 15" width="3.65" height="3.041" transform="translate(107.252 45.289)" fill="#3f3d56"/>
    <path id="Path_18" data-name="Path 18" d="M694.693,403.564v-3.041h-3.65v3.041h3.65Z" transform="translate(-589.873 -343.677)" fill="#3f3d56"/>
    <path id="Path_19" data-name="Path 19" d="M694.389,437.286h-3.345v3.041h3.65v-3.041Z" transform="translate(-589.873 -374.966)" fill="#3f3d56"/>
    <rect id="Rectangle_16" data-name="Rectangle 16" width="3.65" height="3.041" transform="translate(107.252 56.846)" fill="#3f3d56"/>
    <rect id="Rectangle_17" data-name="Rectangle 17" width="3.65" height="3.041" transform="translate(107.252 62.32)" fill="#3f3d56"/>
    <path id="Path_20" data-name="Path 20" d="M694.693,517.938V514.9h-3.65v3.041h3.65Z" transform="translate(-589.873 -441.02)" fill="#3f3d56"/>
    <path id="Path_21" data-name="Path 21" d="M694.389,551.66h-3.345V554.7h3.65V551.66Z" transform="translate(-589.873 -472.308)" fill="#3f3d56"/>
    <rect id="Rectangle_18" data-name="Rectangle 18" width="3.65" height="3.041" transform="translate(107.252 73.877)" fill="#3f3d56"/>
    <rect id="Rectangle_19" data-name="Rectangle 19" width="3.65" height="3.041" transform="translate(107.252 79.352)" fill="#3f3d56"/>
    <rect id="Rectangle_20" data-name="Rectangle 20" width="35.279" height="7.299" transform="translate(50.684 25.825)" fill="#073b4c"/>
    <rect id="Rectangle_21" data-name="Rectangle 21" width="35.279" height="7.299" transform="translate(50.684 40.423)" fill="#073b4c"/>
    <rect id="Rectangle_22" data-name="Rectangle 22" width="35.279" height="7.299" transform="translate(50.684 55.021)" fill="#073b4c"/>
    <rect id="Rectangle_23" data-name="Rectangle 23" width="35.279" height="7.299" transform="translate(50.684 69.619)" fill="#073b4c"/>
    <rect id="Rectangle_25" data-name="Rectangle 25" width="0.875" height="34.555" transform="translate(26.62 65.645)" fill="#073b4c"/>
    <path id="Path_22" data-name="Path 22" d="M184.3,467.812c.056,12.083-8.445,21.917-8.445,21.917s-8.591-9.756-8.647-21.839,8.445-21.917,8.445-21.917S184.249,455.729,184.3,467.812Z" transform="translate(-148.736 -397.763)" fill="#6c63ff"/>
    <path id="Path_23" data-name="Path 23" d="M184.3,467.812c.056,12.083-8.445,21.917-8.445,21.917s-8.591-9.756-8.647-21.839,8.445-21.917,8.445-21.917S184.249,455.729,184.3,467.812Z" transform="translate(-148.736 -397.763)" fill="#06d6a0"/>
    <rect id="Rectangle_26" data-name="Rectangle 26" width="0.875" height="34.555" transform="translate(15.248 65.645)" fill="#073b4c"/>
    <path id="Path_24" data-name="Path 24" d="M107.932,467.812c.056,12.083-8.445,21.917-8.445,21.917S90.9,479.973,90.84,467.89s8.445-21.917,8.445-21.917S107.877,455.729,107.932,467.812Z" transform="translate(-83.736 -397.763)" fill="#05b587"/>
    <path id="Path_25" data-name="Path 25" d="M905.611,233.6c-6.891.032-12.5.134-12.5.134s6.667-8.831,12.475-5.559a79.306,79.306,0,0,0,12.48,5.444S912.5,233.565,905.611,233.6Z" transform="translate(-766.542 -211.775)" fill="#fff"/>
    <path id="Path_26" data-name="Path 26" d="M134.611,347.6c-6.891.032-12.5.134-12.5.134s6.667-8.831,12.475-5.559a79.307,79.307,0,0,0,12.48,5.444S141.5,347.565,134.611,347.6Z" transform="translate(-110.351 -308.799)" fill="#fff"/>
    <path id="Path_27" data-name="Path 27" d="M302.611,109.6c-6.891.032-12.5.134-12.5.134s6.667-8.831,12.475-5.559a79.306,79.306,0,0,0,12.48,5.444S309.5,109.565,302.611,109.6Z" transform="translate(-253.334 -106.239)" fill="#fff"/>
    <rect id="Rectangle_27" data-name="Rectangle 27" width="0.875" height="34.555" transform="translate(152.393 65.645)" fill="#3f3d56"/>
    <path id="Path_28" data-name="Path 28" d="M1028.937,467.812c.056,12.083-8.445,21.917-8.445,21.917s-8.591-9.756-8.647-21.839,8.445-21.917,8.445-21.917S1028.881,455.729,1028.937,467.812Z" transform="translate(-867.595 -397.763)" fill="#06d6a0"/>
    <path id="Path_29" data-name="Path 29" d="M798.567,535.449H807.4v-2.131h4.871v2.131H821.4v9.438h-9.133v11.873H807.4V544.887h-8.829L794,539.711Z" transform="translate(-677.499 -456.698)" fill="#073b4c"/>
  </g>
</svg>
