<svg xmlns="http://www.w3.org/2000/svg" width="181.584" height="123.07" viewBox="0 0 181.584 123.07">
  <g id="Flat_Illustration" data-name="Flat Illustration" transform="translate(0 18.257)">
    <path id="Path_30" data-name="Path 30" d="M1393.9,248.524s-11.023-46.316,16.662-37.542,5.225-28.853,13.5-21.724,44.11-22.441,75.3,3.058c24.044,19.66,54.2,17.084,47.485,40.356,23.592,5.834,4.2,8.413,7.413,14.433,14.018,26.29-.318,54.837-22.276,46.337s-46.964,11.817-82.4-1.471-77.987,3.691-61.439-19.615S1393.9,248.524,1393.9,248.524Z" transform="translate(-1378.231 -200)" fill="#06d6a0" opacity="0.07"/>
    <rect id="Rectangle_28" data-name="Rectangle 28" width="22.135" height="0.316" transform="translate(25.485 22.546)" fill="#073b4c"/>
    <rect id="Rectangle_29" data-name="Rectangle 29" width="0.316" height="2.925" transform="translate(31.493 19.7)" fill="#073b4c"/>
    <rect id="Rectangle_30" data-name="Rectangle 30" width="0.316" height="2.925" transform="translate(41.137 19.7)" fill="#073b4c"/>
    <rect id="Rectangle_31" data-name="Rectangle 31" width="22.135" height="0.316" transform="translate(17.895 6.735)" fill="#073b4c"/>
    <rect id="Rectangle_32" data-name="Rectangle 32" width="0.316" height="2.925" transform="translate(33.706 6.972)" fill="#073b4c"/>
    <rect id="Rectangle_33" data-name="Rectangle 33" width="0.316" height="2.925" transform="translate(24.062 6.972)" fill="#073b4c"/>
    <rect id="Rectangle_34" data-name="Rectangle 34" width="22.135" height="0.316" transform="translate(52.996 28.871)" fill="#f2f2f2"/>
    <rect id="Rectangle_35" data-name="Rectangle 35" width="0.316" height="2.925" transform="translate(59.004 26.025)" fill="#f2f2f2"/>
    <rect id="Rectangle_36" data-name="Rectangle 36" width="0.316" height="2.925" transform="translate(68.649 26.025)" fill="#f2f2f2"/>
    <rect id="Rectangle_37" data-name="Rectangle 37" width="22.135" height="0.316" transform="translate(45.406 13.06)" fill="#f2f2f2"/>
    <rect id="Rectangle_38" data-name="Rectangle 38" width="0.316" height="2.925" transform="translate(61.217 13.297)" fill="#f2f2f2"/>
    <rect id="Rectangle_39" data-name="Rectangle 39" width="0.316" height="2.925" transform="translate(51.573 13.297)" fill="#f2f2f2"/>
    <rect id="Rectangle_40" data-name="Rectangle 40" width="22.135" height="0.316" transform="translate(44.3 82.628)" fill="#f2f2f2"/>
    <rect id="Rectangle_41" data-name="Rectangle 41" width="0.316" height="2.925" transform="translate(50.308 79.782)" fill="#f2f2f2"/>
    <rect id="Rectangle_42" data-name="Rectangle 42" width="0.316" height="2.925" transform="translate(59.953 79.782)" fill="#f2f2f2"/>
    <rect id="Rectangle_43" data-name="Rectangle 43" width="22.135" height="0.316" transform="translate(36.71 66.817)" fill="#f2f2f2"/>
    <rect id="Rectangle_44" data-name="Rectangle 44" width="0.316" height="2.925" transform="translate(52.521 67.054)" fill="#f2f2f2"/>
    <rect id="Rectangle_45" data-name="Rectangle 45" width="0.316" height="2.925" transform="translate(42.877 67.054)" fill="#f2f2f2"/>
    <rect id="Rectangle_46" data-name="Rectangle 46" width="22.135" height="0.316" transform="translate(34.181 48.476)" fill="#073b4c"/>
    <rect id="Rectangle_47" data-name="Rectangle 47" width="0.316" height="2.925" transform="translate(40.189 45.63)" fill="#073b4c"/>
    <rect id="Rectangle_48" data-name="Rectangle 48" width="0.316" height="2.925" transform="translate(49.833 45.63)" fill="#073b4c"/>
    <rect id="Rectangle_49" data-name="Rectangle 49" width="22.135" height="0.316" transform="translate(26.591 32.665)" fill="#f2f2f2"/>
    <rect id="Rectangle_50" data-name="Rectangle 50" width="0.316" height="2.925" transform="translate(42.402 32.902)" fill="#f2f2f2"/>
    <rect id="Rectangle_51" data-name="Rectangle 51" width="0.316" height="2.925" transform="translate(32.758 32.902)" fill="#f2f2f2"/>
    <rect id="Rectangle_52" data-name="Rectangle 52" width="22.135" height="0.316" transform="translate(18.211 72.509)" fill="#f2f2f2"/>
    <rect id="Rectangle_53" data-name="Rectangle 53" width="0.316" height="2.925" transform="translate(24.22 69.663)" fill="#f2f2f2"/>
    <rect id="Rectangle_54" data-name="Rectangle 54" width="0.316" height="2.925" transform="translate(33.864 69.663)" fill="#f2f2f2"/>
    <rect id="Rectangle_55" data-name="Rectangle 55" width="22.135" height="0.316" transform="translate(10.622 56.698)" fill="#f2f2f2"/>
    <rect id="Rectangle_56" data-name="Rectangle 56" width="0.316" height="2.925" transform="translate(26.433 56.935)" fill="#f2f2f2"/>
    <rect id="Rectangle_57" data-name="Rectangle 57" width="0.316" height="2.925" transform="translate(16.788 56.935)" fill="#f2f2f2"/>
    <rect id="Rectangle_58" data-name="Rectangle 58" width="22.135" height="0.316" transform="translate(128.414 22.546)" fill="#073b4c"/>
    <rect id="Rectangle_59" data-name="Rectangle 59" width="0.316" height="2.925" transform="translate(134.422 19.7)" fill="#073b4c"/>
    <rect id="Rectangle_60" data-name="Rectangle 60" width="0.316" height="2.925" transform="translate(144.067 19.7)" fill="#073b4c"/>
    <rect id="Rectangle_61" data-name="Rectangle 61" width="22.135" height="0.316" transform="translate(120.825 6.735)" fill="#f2f2f2"/>
    <rect id="Rectangle_62" data-name="Rectangle 62" width="0.316" height="2.925" transform="translate(136.636 6.972)" fill="#f2f2f2"/>
    <rect id="Rectangle_63" data-name="Rectangle 63" width="0.316" height="2.925" transform="translate(126.991 6.972)" fill="#f2f2f2"/>
    <rect id="Rectangle_64" data-name="Rectangle 64" width="22.135" height="0.316" transform="translate(155.925 28.871)" fill="#073b4c"/>
    <rect id="Rectangle_65" data-name="Rectangle 65" width="0.316" height="2.925" transform="translate(161.933 26.025)" fill="#073b4c"/>
    <rect id="Rectangle_66" data-name="Rectangle 66" width="0.316" height="2.925" transform="translate(171.578 26.025)" fill="#073b4c"/>
    <rect id="Rectangle_67" data-name="Rectangle 67" width="22.135" height="0.316" transform="translate(148.336 13.06)" fill="#f2f2f2"/>
    <rect id="Rectangle_68" data-name="Rectangle 68" width="0.316" height="2.925" transform="translate(164.147 13.297)" fill="#f2f2f2"/>
    <rect id="Rectangle_69" data-name="Rectangle 69" width="0.316" height="2.925" transform="translate(154.502 13.297)" fill="#f2f2f2"/>
    <rect id="Rectangle_70" data-name="Rectangle 70" width="22.135" height="0.316" transform="translate(147.229 82.628)" fill="#f2f2f2"/>
    <rect id="Rectangle_71" data-name="Rectangle 71" width="0.316" height="2.925" transform="translate(153.238 79.782)" fill="#f2f2f2"/>
    <rect id="Rectangle_72" data-name="Rectangle 72" width="0.316" height="2.925" transform="translate(162.882 79.782)" fill="#f2f2f2"/>
    <rect id="Rectangle_73" data-name="Rectangle 73" width="22.135" height="0.316" transform="translate(139.64 66.817)" fill="#f2f2f2"/>
    <rect id="Rectangle_74" data-name="Rectangle 74" width="0.316" height="2.925" transform="translate(155.451 67.054)" fill="#f2f2f2"/>
    <rect id="Rectangle_75" data-name="Rectangle 75" width="0.316" height="2.925" transform="translate(145.806 67.054)" fill="#f2f2f2"/>
    <rect id="Rectangle_76" data-name="Rectangle 76" width="22.135" height="0.316" transform="translate(137.11 48.476)" fill="#073b4c"/>
    <rect id="Rectangle_77" data-name="Rectangle 77" width="0.316" height="2.925" transform="translate(143.118 45.63)" fill="#073b4c"/>
    <rect id="Rectangle_78" data-name="Rectangle 78" width="0.316" height="2.925" transform="translate(152.763 45.63)" fill="#073b4c"/>
    <rect id="Rectangle_79" data-name="Rectangle 79" width="22.135" height="0.316" transform="translate(129.521 32.665)" fill="#f2f2f2"/>
    <rect id="Rectangle_80" data-name="Rectangle 80" width="0.316" height="2.925" transform="translate(145.332 32.902)" fill="#f2f2f2"/>
    <rect id="Rectangle_81" data-name="Rectangle 81" width="0.316" height="2.925" transform="translate(135.687 32.902)" fill="#f2f2f2"/>
    <rect id="Rectangle_82" data-name="Rectangle 82" width="22.135" height="0.316" transform="translate(121.141 72.509)" fill="#073b4c"/>
    <rect id="Rectangle_83" data-name="Rectangle 83" width="0.316" height="2.925" transform="translate(127.149 69.663)" fill="#f2f2f2"/>
    <rect id="Rectangle_84" data-name="Rectangle 84" width="0.316" height="2.925" transform="translate(136.794 69.663)" fill="#073b4c"/>
    <rect id="Rectangle_85" data-name="Rectangle 85" width="22.135" height="0.316" transform="translate(113.552 56.698)" fill="#f2f2f2"/>
    <rect id="Rectangle_86" data-name="Rectangle 86" width="0.316" height="2.925" transform="translate(129.363 56.935)" fill="#f2f2f2"/>
    <rect id="Rectangle_87" data-name="Rectangle 87" width="0.316" height="2.925" transform="translate(119.718 56.935)" fill="#f2f2f2"/>
    <rect id="Rectangle_88" data-name="Rectangle 88" width="30.752" height="43.638" transform="translate(57.384 -4.95)" fill="#073b4c"/>
    <rect id="Rectangle_89" data-name="Rectangle 89" width="30.752" height="43.638" transform="translate(96.832 47.384)" fill="#073b4c"/>
    <rect id="Rectangle_90" data-name="Rectangle 90" width="30.752" height="43.638" transform="translate(96.832 -4.95)" fill="#073b4c"/>
    <rect id="Rectangle_91" data-name="Rectangle 91" width="30.752" height="43.638" transform="translate(57.384 47.384)" fill="#073b4c"/>
    <rect id="Rectangle_92" data-name="Rectangle 92" width="152.341" height="0.354" transform="translate(15.088 90.885)" fill="#2f2e41"/>
    <path id="Path_31" data-name="Path 31" d="M141.582,693.889h-1.739v14.7s11.226,3.636,22.135,0v-14.7Z" transform="translate(-123.568 -605.396)" fill="#073b4c"/>
    <ellipse id="Ellipse_3" data-name="Ellipse 3" cx="10.91" cy="1.66" rx="10.91" ry="1.66" transform="translate(16.275 86.912)" fill="#3f3d56"/>
    <ellipse id="Ellipse_4" data-name="Ellipse 4" cx="10.91" cy="1.66" rx="10.91" ry="1.66" transform="translate(16.275 86.912)" fill="#073b4c" opacity="0.1"/>
    <path id="Path_32" data-name="Path 32" d="M208,474.324C205.244,484.5,195.818,490.8,195.818,490.8s-4.965-10.194-2.212-20.367,12.179-16.474,12.179-16.474S210.748,464.151,208,474.324Z" transform="translate(-168.13 -403.4)" fill="#05b587"/>
    <path id="Path_33" data-name="Path 33" d="M126.275,474.324c2.752,10.174,12.179,16.474,12.179,16.474s4.965-10.194,2.212-20.367-12.179-16.474-12.179-16.474S123.523,464.151,126.275,474.324Z" transform="translate(-111.446 -403.4)" fill="#073b4c"/>
    <path id="Path_34" data-name="Path 34" d="M55.782,526.511c7.552,7.352,8.474,18.652,8.474,18.652s-11.322-.618-18.873-7.97-8.474-18.652-8.474-18.652S48.23,519.159,55.782,526.511Z" transform="translate(-36.909 -457.773)" fill="#05b587"/>
    <path id="Path_35" data-name="Path 35" d="M218.35,526.511c-7.552,7.352-8.474,18.652-8.474,18.652s11.322-.618,18.873-7.97,8.474-18.652,8.474-18.652S225.9,519.159,218.35,526.511Z" transform="translate(-182.528 -457.773)" fill="#05b587"/>
    <circle id="Ellipse_5" data-name="Ellipse 5" cx="3.478" cy="3.478" r="3.478" transform="translate(23.864 47.068)" fill="#073b4c"/>
    <circle id="Ellipse_6" data-name="Ellipse 6" cx="0.474" cy="0.474" r="0.474" transform="translate(69.084 17.976)" fill="#fff"/>
    <circle id="Ellipse_7" data-name="Ellipse 7" cx="5.534" cy="5.534" r="5.534" transform="translate(61.811 1.69)" fill="#fff"/>
    <circle id="Ellipse_8" data-name="Ellipse 8" cx="0.158" cy="0.158" r="0.158" transform="translate(76.041 14.655)" fill="#fff"/>
    <circle id="Ellipse_9" data-name="Ellipse 9" cx="0.158" cy="0.158" r="0.158" transform="translate(103.868 22.561)" fill="#fff"/>
    <circle id="Ellipse_10" data-name="Ellipse 10" cx="0.158" cy="0.158" r="0.158" transform="translate(102.129 69.836)" fill="#fff"/>
    <circle id="Ellipse_11" data-name="Ellipse 11" cx="0.158" cy="0.158" r="0.158" transform="translate(68.767 80.745)" fill="#fff"/>
    <circle id="Ellipse_12" data-name="Ellipse 12" cx="0.158" cy="0.158" r="0.158" transform="translate(115.41 28.095)" fill="#fff"/>
    <circle id="Ellipse_13" data-name="Ellipse 13" cx="0.158" cy="0.158" r="0.158" transform="translate(113.829 14.813)" fill="#fff"/>
    <circle id="Ellipse_14" data-name="Ellipse 14" cx="0.158" cy="0.158" r="0.158" transform="translate(108.453 57.503)" fill="#fff"/>
    <circle id="Ellipse_15" data-name="Ellipse 15" cx="0.158" cy="0.158" r="0.158" transform="translate(99.915 33.787)" fill="#fff"/>
    <circle id="Ellipse_16" data-name="Ellipse 16" cx="0.158" cy="0.158" r="0.158" transform="translate(101.18 11.493)" fill="#fff"/>
    <circle id="Ellipse_17" data-name="Ellipse 17" cx="0.158" cy="0.158" r="0.158" transform="translate(115.568 2.481)" fill="#fff"/>
    <circle id="Ellipse_18" data-name="Ellipse 18" cx="0.158" cy="0.158" r="0.158" transform="translate(69.084 66.515)" fill="#fff"/>
    <circle id="Ellipse_19" data-name="Ellipse 19" cx="0.158" cy="0.158" r="0.158" transform="translate(82.681 78.532)" fill="#fff"/>
    <circle id="Ellipse_20" data-name="Ellipse 20" cx="0.158" cy="0.158" r="0.158" transform="translate(65.289 54.657)" fill="#fff"/>
    <circle id="Ellipse_21" data-name="Ellipse 21" cx="0.158" cy="0.158" r="0.158" transform="translate(69.242 33.787)" fill="#fff"/>
    <path id="Path_36" data-name="Path 36" d="M438.934,204l18.736-8.075v2.138Z" transform="translate(-369.534 -169.902)" fill="#fff" opacity="0.1"/>
    <path id="Path_37" data-name="Path 37" d="M643.186,88.41v6.636l-30.752,9.746v-3.129Z" transform="translate(-515.602 -79.382)" fill="#fff" opacity="0.1"/>
    <path id="Path_38" data-name="Path 38" d="M533.883,469.826l9.559-5.267v.732C538.1,467.879,534.07,469.74,533.883,469.826Z" transform="translate(-455.306 -412.326)" fill="#fff" opacity="0.1"/>
    <path id="Path_39" data-name="Path 39" d="M649.451,433.889h2.411q-1.255.647-2.519,1.285v-1.225Z" transform="translate(-552.511 -386.505)" fill="#fff" opacity="0.1"/>
    <path id="Path_40" data-name="Path 40" d="M753.03,367.889c-.073.419-.625,1.013-1.543,1.739h-1.614Z" transform="translate(-637.146 -330.94)" fill="#fff" opacity="0.1"/>
    <path id="Path_41" data-name="Path 41" d="M758.846,547.249v1.116c-8.209,4.1-15.708,7.561-15.963,7.678Z" transform="translate(-631.261 -481.942)" fill="#fff" opacity="0.1"/>
    <path id="Path_47" data-name="Path 47" d="M708.236,499.165a.928.928,0,0,0-.979.385,1.265,1.265,0,0,0-.158.39,2.138,2.138,0,0,0,.68,2.091,4.113,4.113,0,0,1,.435.369,1.236,1.236,0,0,1,.239,1.113,1.875,1.875,0,0,1-.653.965.532.532,0,0,0-.16.172c-.107.229.169.447.239.689" transform="translate(-601.09 -441.44)" fill="#fff" opacity="0.1"/>
  </g>
</svg>
